<svg width="111" height="51" viewBox="0 0 111 51" fill="none" xmlns="http://www.w3.org/2000/svg">
<path d="M39.603 31.2143H47.7716C47.7845 31.7094 47.8061 32.1929 47.8148 32.6764C47.845 35.5831 47.7111 38.4665 47.0977 41.2742C46.6398 43.3713 45.927 45.2819 44.791 46.8721C43.6117 48.5206 42.1603 49.5342 40.5361 50.1342C38.6916 50.8157 36.8082 50.9148 34.9075 50.7575C33.4734 50.6352 32.0781 50.274 30.7563 49.5051C27.8232 47.7983 25.9571 44.8567 25.2098 40.6509C24.929 39.0723 24.7303 37.4763 24.6698 35.8569C24.5791 33.3463 24.5014 30.8415 24.4452 28.3308C24.4106 26.9037 24.3977 25.4707 24.4236 24.0436C24.4711 21.4223 24.5273 18.7952 24.6396 16.1797C24.7389 13.9021 24.9808 11.6478 25.5467 9.48665C26.4841 5.92169 28.32 3.5101 30.8815 2.06547C32.117 1.36646 33.4172 1.02861 34.7477 0.900453C36.009 0.783951 37.2704 0.795602 38.5231 1.02861C40.7045 1.43054 42.7002 2.40333 44.3417 4.47124C45.6506 6.11974 46.4756 8.16435 46.9983 10.4478C47.3785 12.0963 47.6031 13.7856 47.6808 15.5098C47.724 16.4593 47.7413 17.4088 47.7672 18.3641C47.7672 18.4631 47.7586 18.5622 47.7543 18.6787C47.6679 18.6845 47.5944 18.6961 47.521 18.6961C45.0501 18.6961 42.575 18.6961 40.1041 18.6903C39.6203 18.6903 39.698 18.766 39.6851 18.1136C39.6419 16.2787 39.5685 14.4496 39.1365 12.6905C38.8125 11.3623 38.2207 10.3488 37.1581 10.04C36.1213 9.73713 35.1192 9.81868 34.2768 10.8381C33.7369 11.4963 33.4474 12.3584 33.3394 13.3079C33.1839 14.6943 33.05 16.0923 32.9766 17.4962C32.7649 21.4747 32.8081 25.4591 32.8513 29.4434C32.8772 31.7502 33.0025 34.0569 33.1235 36.3578C33.1667 37.1792 33.2833 38.0063 33.4345 38.8044C33.8276 40.9189 34.9464 41.9849 36.5576 41.8276C38.0868 41.682 38.9119 40.6626 39.2747 38.4665C39.5469 36.8064 39.5944 35.1171 39.5987 33.422C39.5987 32.7055 39.5987 31.9832 39.5987 31.2317L39.603 31.2143Z" fill="#FAF195"/>
<path d="M90.3957 1.9963C92.9357 17.8755 95.4713 33.7431 98.0113 49.634H89.7132C89.6354 48.9699 89.5577 48.3058 89.4842 47.6418C89.2985 45.9816 89.1084 44.3215 88.9227 42.6613C88.8535 42.0439 88.7844 41.4206 88.711 40.8031C88.6937 40.6633 88.6937 40.5293 88.5339 40.5293C86.4432 40.5293 84.3567 40.5293 82.2271 40.5293C81.8816 43.5642 81.5403 46.5991 81.1947 49.6398H72.8318C72.8836 49.3019 72.9268 48.9815 72.9787 48.667C73.7994 43.6108 74.6201 38.5604 75.4409 33.5043C76.3048 28.1626 77.1644 22.821 78.0284 17.4794C78.8189 12.6038 79.6094 7.72237 80.3999 2.84677C80.4431 2.57299 80.4388 2.20018 80.5684 2.05455C80.698 1.91475 80.9701 1.9963 81.1774 1.9963C84.1537 1.9963 87.13 1.9963 90.1063 1.9963H90.3914H90.3957ZM85.4583 11.4679H85.428C84.6462 18.2775 83.8643 25.0928 83.0824 31.914H87.7779C87.0004 25.087 86.2272 18.2775 85.4583 11.4679Z" fill="#FAF195"/>
<path d="M7.93998 33.5278C7.93998 34.2326 7.93134 34.9142 7.93998 35.5899C7.95726 36.8772 8.0307 38.1588 8.30284 39.4053C8.60522 40.7975 9.23589 41.7412 10.3331 41.9509C12.1517 42.3004 13.2575 41.0538 13.6074 38.9393C13.9703 36.7549 13.426 34.9433 12.3245 33.3647C11.5599 32.2696 10.6398 31.4482 9.73266 30.5978C8.13869 29.1007 6.53608 27.6037 4.98099 26.0367C4.26392 25.3144 3.59437 24.4756 2.97665 23.6018C2.03496 22.2679 1.52955 20.5903 1.1667 18.8369C0.739048 16.7573 0.661293 14.6312 0.795204 12.4875C0.916155 10.5711 1.25309 8.73618 1.94424 7.04108C3.184 4.01785 5.09762 2.18295 7.54689 1.33248C9.07174 0.8024 10.6182 0.755799 12.1776 0.895601C13.5426 1.01793 14.8688 1.36743 16.1301 2.1014C18.7133 3.60427 20.2857 6.26052 20.9725 9.9012C21.2144 11.1886 21.3397 12.505 21.3397 13.839C21.3397 14.5555 21.3397 15.2719 21.3397 16.0001H13.8407C13.8407 15.4816 13.858 14.969 13.8407 14.4564C13.7975 13.2972 13.6722 12.1613 13.3007 11.0953C12.6096 9.09151 10.8169 8.4391 9.55987 9.74975C8.92919 10.408 8.64841 11.3225 8.52314 12.3594C8.33739 13.9263 8.78664 15.1904 9.51667 16.3321C10.372 17.6777 11.4476 18.6622 12.5361 19.6349C14.1949 21.1203 15.8493 22.6057 17.4779 24.1436C18.3418 24.9591 19.1237 25.9144 19.7759 27.0445C20.5967 28.46 21.0459 30.1085 21.3397 31.8444C21.7025 33.9996 21.7285 36.1782 21.5686 38.3685C21.4045 40.5995 21.0027 42.7315 20.1647 44.6829C18.9422 47.5255 17.1193 49.3138 14.7867 50.1992C13.102 50.84 11.3828 50.9099 9.65058 50.7643C8.30716 50.6536 7.00261 50.3157 5.75422 49.6342C3.12784 48.1954 1.53387 45.5392 0.769286 41.9159C0.453948 40.4422 0.28116 38.9393 0.263881 37.419C0.250922 36.2074 0.294119 34.9899 0.302758 33.7783C0.302758 33.5977 0.332996 33.5045 0.492825 33.5045C2.92913 33.5103 5.36112 33.5045 7.79743 33.5045C7.83199 33.5045 7.87087 33.5162 7.93998 33.522V33.5278Z" fill="#FAF195"/>
<path d="M52.1951 49.6358V2.01562H60.4716V40.0186H70.3939V49.6416H52.1951V49.6358Z" fill="#FAF195"/>
<path d="M101.914 38.7578H110.074V49.6333H101.914V38.7578Z" fill="#FAF195"/>
</svg>
